<?xml version="1.0" encoding="UTF-8" standalone="no"?>
<!-- Created with Inkscape (http://www.inkscape.org/) -->

<svg
   width="100%"
   height="100%"
   viewBox="0 0 210 297"
   version="1.1"
   id="svg5"
   xmlns="http://www.w3.org/2000/svg"
   xmlns:svg="http://www.w3.org/2000/svg">
  <defs
     id="defs2" />
  <g
     id="layer1">
    <rect
       style="fill:#784421;stroke:#502d16;stroke-width:2.76895;stroke-miterlimit:4;stroke-dasharray:none"
       id="rect868"
       width="127.56734"
       height="113.25122"
       x="127.00972"
       y="-0.091195323"
       ry="0"
       transform="matrix(0.81991027,0.57249205,-0.86001196,0.51027388,0,0)" />
    <rect
       style="fill:#783600;fill-opacity:1;stroke:#502d16;stroke-width:0;stroke-miterlimit:4;stroke-dasharray:none"
       id="rect868-6"
       width="90.131271"
       height="80.63298"
       x="154.15741"
       y="27.217873"
       ry="0"
       transform="matrix(0.85020704,0.52644846,-0.88497104,0.46564606,0,0)" />
    <path
       style="fill:#784421;stroke:#502d16;stroke-width:3;stroke-miterlimit:4;stroke-dasharray:none"
       id="path1298"
       d="m 26.698818,134.51417 c 2.050359,-1.13425 0.926349,-0.50575 4.899554,-2.82982 0.313037,-0.1831 1.247918,-0.73948 0.933183,-0.55931 -0.771356,0.44156 -1.539441,0.88892 -2.303164,1.34356 -0.310443,0.18481 0.630944,-0.35226 0.943208,-0.53398 1.401138,-0.81537 2.797945,-1.63816 4.196919,-2.45725 1.490321,-1.03328 2.978187,-2.08593 4.301604,-3.32984 1.042675,-0.86933 1.98592,-1.85724 3.048074,-2.70038 1.157017,-0.92255 2.205286,-1.96719 3.366907,-2.88582 1.086226,-0.9905 2.084242,-2.07272 3.181054,-3.05355 0.221461,-0.16247 0.437057,-0.33326 0.664387,-0.48741 0.296537,-0.20109 0.602676,-0.38766 0.906389,-0.57774 0.351623,-0.22007 1.41951,-0.85879 1.059555,-0.65264 -4.87391,2.79135 0.104251,0.0839 0.954964,-0.34844 2.165373,-1.17895 4.442208,-2.12031 6.70098,-3.09883 1.334542,-0.53017 2.691077,-1.0062 4.042756,-1.49173 1.859087,-0.63313 3.569536,-1.61077 5.269794,-2.57735 1.457473,-0.84694 2.916198,-1.69174 4.372419,-2.54083 0.75578,-0.44068 -3.022092,1.76437 -2.271093,1.31559 1.445027,-0.86353 2.912652,-1.68903 4.353282,-2.55987 1.037511,-0.62716 2.023433,-1.36647 3.03349,-2.0378 2.294456,-1.46293 4.494512,-3.064804 6.743409,-4.595879 3.150016,-2.279259 6.345616,-4.49334 9.538179,-6.712204 1.902534,-1.374508 3.840215,-2.690641 5.866262,-3.875109 0,0 -3.539884,1.363763 -3.539884,1.363763 v 0 c -1.998385,1.204651 -3.918813,2.524734 -5.815182,3.88443 -3.192875,2.224193 -6.385647,4.447958 -9.549963,6.712773 -2.271908,1.547436 -4.517223,3.133936 -6.82702,4.624846 -0.655492,0.43934 -1.307137,0.88443 -1.963912,1.32186 -0.352489,0.23476 -1.444445,0.87936 -1.061974,0.69748 0.764304,-0.36345 2.940479,-1.67705 2.212882,-1.24478 -1.453986,0.86383 -7.544792,4.33812 -2.107753,1.23245 -1.672243,0.95851 -3.348836,1.93658 -5.170439,2.58885 -1.370574,0.46484 -2.722256,0.9916 -4.08277,1.48442 -2.27907,1.01612 -4.602366,1.93827 -6.792187,3.1452 -3.492117,1.75315 -7.015787,3.5452 -10.14082,5.90227 -1.07854,1.0009 -2.088121,2.07532 -3.2018,3.03685 -1.142106,0.94115 -2.200982,1.97696 -3.366151,2.89027 -1.027824,0.88304 -2.01613,1.81261 -3.028341,2.71378 -1.341814,1.19622 -2.800149,2.25828 -4.299151,3.24853 0.801534,-0.45371 1.60247,-0.90847 2.404599,-1.36112 0.316598,-0.17865 -0.632629,0.35833 -0.947999,0.53915 -1.430539,0.82021 -2.862228,1.63844 -4.289722,2.46395 -0.317058,0.18335 -1.263721,0.74094 -0.943832,0.56257 0.822722,-0.45876 1.634842,-0.93628 2.452582,-1.40386 0.223485,-0.12779 -0.446545,0.25632 -0.669819,0.38448 0,0 -3.073456,2.45847 -3.073456,2.45847 z" />
    <path
       style="fill:#784421;stroke:#502d16;stroke-width:3;stroke-miterlimit:4;stroke-dasharray:none"
       id="path1300"
       d="m 42.291156,145.24883 c 2.627685,-0.71961 5.0767,-2.02282 7.465409,-3.3104 0.505042,-0.28248 1.014044,-0.55799 1.51512,-0.84744 1.550101,-0.89542 3.102213,-1.78768 4.638223,-2.70706 1.592892,-0.95343 3.067648,-2.10009 4.590023,-3.15835 1.815277,-1.1752 3.498702,-2.52798 5.2177,-3.83556 1.412369,-1.12093 2.839315,-2.22545 4.235238,-3.36696 1.213366,-1.05831 5.93511,-3.70717 -0.01894,-0.22518 1.960486,-1.08228 4.12442,-1.6864 6.246863,-2.35821 3.508848,-1.13879 7.019596,-2.26949 10.557914,-3.31312 1.816685,-0.56263 3.702265,-0.81891 5.536605,-1.30953 2.122006,-0.62963 4.131,-1.57337 6.058008,-2.65162 2.047031,-1.17459 4.151681,-2.25936 5.938681,-3.80971 0.86855,-0.75354 1.6812,-1.57039 2.49871,-2.37789 1.31724,-1.25817 2.54101,-2.60177 3.74228,-3.969 1.09249,-1.25425 2.05217,-2.64208 2.77136,-4.14476 0.61535,-0.98734 0.95449,-2.1048 1.43233,-3.15691 0.99371,-2.187932 -0.2209,0.65663 0.69398,-1.518197 0.53191,-1.29267 1.60699,-2.148261 2.64674,-3.020081 0,0 -3.6098,1.462545 -3.6098,1.462545 v 0 c -1.04619,0.913844 -2.06611,1.850038 -2.5738,3.183243 -0.6802,1.56617 -1.33304,3.14869 -2.13728,4.65625 -0.75259,1.46931 -1.71654,2.82494 -2.81773,4.05456 -1.18395,1.35577 -2.41298,2.66787 -3.70506,3.92204 -1.07585,1.05151 -2.14921,2.11657 -3.366481,3.00737 -0.286739,0.20983 -1.200396,0.75547 -0.880517,0.60078 0.814776,-0.39402 1.581088,-0.88125 2.371638,-1.32187 -1.896502,1.11054 -3.891333,2.0644 -5.991935,2.72418 -1.846802,0.51644 -3.749696,0.76763 -5.583922,1.33399 -3.544451,1.08207 -7.071511,2.216 -10.602352,3.34252 -2.089001,0.6398 -4.230544,1.18155 -6.173239,2.2085 -2.271049,1.29432 -4.626714,2.47139 -6.656269,4.13651 -1.392497,1.11964 -2.778934,2.2473 -4.194484,3.33765 -1.712431,1.30234 -3.405513,2.62834 -5.203386,3.81353 -1.094089,0.77112 -2.171658,1.56416 -3.289342,2.30131 -0.418566,0.27606 -1.734381,0.99017 -1.264981,0.81391 0.03148,-0.0118 4.344874,-2.44365 0.313216,-0.17186 -2.322414,1.27405 -4.70264,2.50009 -7.231065,3.31132 0,0 -3.169438,2.3635 -3.169438,2.3635 z" />
    <path
       style="fill:#784421;stroke:#502d16;stroke-width:3;stroke-miterlimit:4;stroke-dasharray:none"
       id="path1302"
       d="m 54.444532,155.76759 c 2.873007,-1.33883 5.739167,-2.66721 8.524906,-4.1844 3.869127,-2.17575 7.738959,-4.3478 11.669713,-6.41038 3.599259,-1.913 7.410973,-3.37521 11.26894,-4.66867 2.296956,-0.81419 4.644569,-1.45869 7.001896,-2.06838 2.579756,-0.64678 5.23318,-0.91849 7.859763,-1.30324 3.67882,-0.49598 7.3537,-0.999 10.96235,-1.8804 2.35639,-0.54299 4.64708,-1.33184 6.79827,-2.44138 1.4478,-0.74674 5.83455,-3.43508 5.94137,-3.49902 2.34835,-1.69963 4.20092,-3.90304 5.80741,-6.29093 1.10807,-1.65216 2.28938,-3.23639 3.15031,-5.03713 0.61248,-1.72682 1.07427,-3.52562 1.41412,-5.32743 0.18811,-1.20146 0.54055,-2.34058 1.06369,-3.43527 0,0 -3.56769,1.63151 -3.56769,1.63151 v 0 c -0.4773,1.12494 -0.79444,2.28876 -0.98575,3.49719 -0.3648,1.77421 -0.78202,3.5628 -1.4677,5.24198 -0.87099,1.76359 -2.05873,3.31827 -3.12512,4.96456 -1.61309,2.34523 -3.46464,4.50987 -5.83016,6.13515 0.65468,-0.35132 1.28132,-0.76082 1.96404,-1.05395 0.49994,-0.21465 -0.93344,0.56008 -1.41287,0.8173 -2.13074,1.14315 -4.40265,1.97651 -6.76046,2.51156 -3.59428,0.91847 -7.26044,1.42957 -10.93611,1.90923 -2.60776,0.3622 -5.243974,0.6008 -7.808985,1.2115 -2.391187,0.61858 -4.77647,1.25862 -7.098763,2.10893 -3.868028,1.30227 -7.705709,2.73388 -11.325005,4.63702 -3.938638,2.0653 -7.816143,4.23929 -11.691995,6.42004 -1.684129,0.92468 -3.370303,1.81875 -5.121349,2.61177 -0.831244,0.37646 -1.686431,0.69931 -2.512492,1.08701 -0.236236,0.11088 -0.461163,0.2444 -0.691745,0.36659 0,0 -3.090584,2.44924 -3.090584,2.44924 z" />
    <path
       style="fill:#784421;stroke:#502d16;stroke-width:3;stroke-miterlimit:4;stroke-dasharray:none"
       id="path1304"
       d="m 75.000897,161.67332 c 2.76666,-2.09784 5.772888,-3.86792 8.747119,-5.65307 -0.371874,0.24783 -1.545902,0.86419 -1.115623,0.74348 0.786992,-0.22077 1.469866,-0.71602 2.215044,-1.05189 2.256102,-1.01691 4.558749,-1.92655 6.898412,-2.72996 2.230192,-0.79205 4.511516,-1.38951 6.858291,-1.68973 2.44297,-0.22668 4.90053,-0.22083 7.3518,-0.21964 2.08115,0.0133 4.1621,0.0266 6.24328,0.0155 4.21306,-0.018 8.44919,-0.0903 12.61791,-0.77169 0.8784,-0.14358 1.74585,-0.34763 2.61877,-0.52145 5.52389,-1.36066 10.51054,-4.20994 15.13089,-7.46991 2.79641,-2.00983 4.43861,-4.21676 6.0022,-7.22863 0.74941,-1.65916 1.19207,-3.4205 1.99541,-5.05602 0.46508,-0.95025 1.10067,-1.82227 1.79868,-2.61615 0.55907,-0.44007 0.28603,-0.2183 0.81959,-0.66478 0,0 -3.64529,1.47503 -3.64529,1.47503 v 0 c -0.53049,0.45604 -0.26623,0.2159 -0.79108,0.72232 -0.6819,0.82989 -1.31142,1.72342 -1.74817,2.70838 -0.72739,1.63624 -1.15169,3.37954 -1.91656,5.001 -1.54446,2.91791 -3.26556,5.10832 -5.99903,7.03107 -0.52997,0.36721 -1.31959,0.51627 -1.58992,1.10163 -0.22533,0.48794 1.88769,-1.02739 1.42745,-0.74981 -2.66206,1.60551 -5.5742,2.75681 -8.57615,3.54174 -0.87343,0.18474 -1.74063,0.40187 -2.62029,0.55422 -4.09558,0.70937 -8.27179,0.78741 -12.416,0.6854 -2.08312,-0.0179 -4.16623,-0.0209 -6.24942,-0.0124 -2.45308,0.008 -4.91012,-0.02 -7.35799,0.16778 -2.382866,0.2671 -4.697806,0.85105 -6.955771,1.66308 -5.039387,1.70988 -9.903944,3.9316 -14.451296,6.70452 -3.039961,1.82785 -6.122132,3.63209 -8.932632,5.80287 0,0 3.640376,-1.4829 3.640376,-1.4829 z" />
    <path
       style="fill:#784421;stroke:#502d16;stroke-width:3;stroke-miterlimit:4;stroke-dasharray:none"
       id="path1306"
       d="m 92.416433,175.53364 c 0.144767,-0.18627 0.267859,-0.39163 0.434295,-0.55882 1.235128,-1.24076 2.764901,-2.26135 4.212968,-3.22017 2.120088,-1.40378 2.272578,-1.4456 4.517344,-2.74453 -0.28179,0.16901 -1.13972,0.65307 -0.84537,0.50703 0.71788,-0.35617 1.40711,-0.7676 2.11763,-1.13826 2.13638,-1.11447 4.32858,-2.12515 6.49512,-3.17922 3.17203,-1.6795 6.41684,-1.98901 9.93415,-2.24812 3.13665,-0.21517 6.26926,-0.23014 9.39768,0.0718 2.06177,0.215 4.13881,0.46483 6.21468,0.28229 0.52603,-0.0463 1.0467,-0.14075 1.57005,-0.21112 3.56866,-0.64313 6.87644,-2.18082 10.14422,-3.69085 4.38807,-2.04704 8.6686,-4.38843 12.61502,-7.20111 2.25751,-1.86164 4.21607,-4.02945 6.01425,-6.32776 0.93109,-1.328 1.96533,-2.5846 3.08502,-3.75737 0.41583,-0.42642 0.84321,-0.84129 1.26959,-1.25708 0,0 -3.62865,1.49925 -3.62865,1.49925 v 0 c -0.4214,0.41701 -0.8436,0.83343 -1.24871,1.26647 -1.08951,1.1905 -2.09956,2.45293 -3.03061,3.77122 -1.77367,2.26251 -3.69567,4.41147 -5.97032,6.18849 -0.4759,0.33019 -0.94394,0.67203 -1.42771,0.99058 -0.46096,0.30353 -1.93051,1.04565 -1.4056,0.87511 0.63267,-0.20556 1.15881,-0.65365 1.73692,-0.98275 0.54262,-0.30891 -1.07983,0.62774 -1.63046,0.92214 -1.24307,0.66463 -2.16512,1.07787 -3.43958,1.67677 -3.24672,1.49691 -6.50863,3.07368 -10.04578,3.75339 -0.51132,0.0774 -1.01934,0.18123 -1.53396,0.23236 -2.05691,0.20439 -4.12148,-0.0632 -6.16691,-0.25263 -0.75153,-0.0716 -1.92284,-0.19146 -2.66675,-0.22712 -2.28737,-0.10964 -4.57779,0.1011 -6.86243,0.17432 -3.55106,0.2225 -6.74476,0.40932 -9.96344,2.08791 -4.78555,2.34763 -9.61422,4.61519 -14.126034,7.47985 -2.218688,1.29701 -2.453651,1.3893 -4.553765,2.78913 -1.526995,1.01781 -3.081996,2.08195 -4.368078,3.40657 -0.173124,0.17832 -0.31029,0.38832 -0.465436,0.58248 0,0 3.620656,-1.56027 3.620656,-1.56027 z" />
    <path
       style="fill:#008000;stroke:#502d16;stroke-width:3;stroke-miterlimit:4;stroke-dasharray:none"
       id="path1308"
       d="m 106.46619,187.20921 c 3.39802,-1.31277 6.74092,-2.761 10.11321,-4.13781 4.57821,-1.90153 9.27955,-3.4577 14.01128,-4.92287 4.12316,-1.40808 8.2328,-2.85794 12.31356,-4.38524 3.38018,-1.30189 6.72657,-2.69292 10.01371,-4.2146 2.6793,-1.14752 5.24742,-2.51288 7.82489,-3.86608 3.58376,-1.72089 6.6983,-4.13403 9.91123,-6.42149 1.66744,-1.15592 3.24244,-2.4358 4.68711,-3.85979 0.68562,-0.76928 1.49518,-1.4144 2.13527,-2.22244 0,0 -3.6243,1.53939 -3.6243,1.53939 v 0 c -0.66944,0.75845 -1.42661,1.43443 -2.11852,2.17239 -1.43599,1.38976 -2.9987,2.63636 -4.63948,3.777 -1.09706,0.78945 -2.17605,1.60414 -3.2856,2.37612 -0.38322,0.26664 -0.7671,0.53255 -1.15816,0.78753 -0.37305,0.24323 -1.53094,0.90814 -1.13372,0.7068 0.75645,-0.38343 1.47575,-0.83611 2.21362,-1.25417 -2.59993,1.35508 -5.1636,2.77534 -7.86714,3.92273 -3.28977,1.53347 -6.63915,2.93435 -10.01983,4.25526 -4.08907,1.54613 -8.21466,2.99167 -12.34091,4.43461 -4.73654,1.46393 -9.4469,3.0032 -14.0323,4.89919 -3.3005,1.33422 -6.57027,2.74529 -9.9048,3.99232 0,0 -3.09912,2.42115 -3.09912,2.42115 z" />
    <path
       style="fill:#008000;stroke:#502d16;stroke-width:0;stroke-miterlimit:4;stroke-dasharray:none"
       id="path1343"
       d="m 95.285654,89.455894 c -0.302443,-1.127316 -0.524981,-2.277444 -0.735179,-3.425666 -0.110424,-0.709367 -0.06182,-0.361771 -0.14722,-1.042602 0,0 -3.480413,1.832669 -3.480413,1.832669 v 0 c 0.09982,0.689599 0.04427,0.337894 0.167894,1.05492 0.226102,1.161063 0.44823,2.323825 0.719539,3.475087 0,0 3.475379,-1.894408 3.475379,-1.894408 z" />
    <path
       style="fill:#008000;stroke:#502d16;stroke-width:0;stroke-miterlimit:4;stroke-dasharray:none"
       id="path1345"
       d="m 85.349859,95.68477 c -0.247052,-0.451646 -0.384386,-0.947452 -0.529124,-1.437733 0,0 -3.443692,1.881394 -3.443692,1.881394 v 0 c 0.152429,0.51348 0.299289,1.030986 0.530291,1.516457 0,0 3.442525,-1.960118 3.442525,-1.960118 z" />
    <path
       style="fill:#008000;stroke:#502d16;stroke-width:0;stroke-miterlimit:4;stroke-dasharray:none"
       id="path1347"
       d="m 76.265949,100.4288 c -0.308078,-1.185892 -0.456208,-2.405283 -0.557662,-3.623938 -0.01005,-0.164986 -0.02013,-0.329972 -0.0302,-0.494958 0,0 -3.493061,1.810813 -3.493061,1.810813 v 0 c 0.01326,0.166561 0.02651,0.333124 0.03976,0.499684 0.126058,1.243071 0.309991,2.479389 0.565782,3.702809 0,0 3.475379,-1.89441 3.475379,-1.89441 z" />
    <path
       style="fill:#008000;stroke:#502d16;stroke-width:0;stroke-miterlimit:4;stroke-dasharray:none"
       id="path1349"
       d="m 64.357958,108.45865 c 0.231254,-1.24744 0.486662,-2.4899 0.73229,-3.73457 0,0 -3.469669,1.68262 -3.469669,1.68262 v 0 c -0.256527,1.27055 -0.529172,2.53765 -0.799901,3.80525 0,0 3.53728,-1.7533 3.53728,-1.7533 z" />
    <path
       style="fill:#008000;stroke:#502d16;stroke-width:0;stroke-miterlimit:4;stroke-dasharray:none"
       id="path1351"
       d="m 54.065717,136.6453 c -0.04929,-2.06861 -0.381373,-4.12296 -0.755631,-6.1544 0,0 -3.401338,1.81346 -3.401338,1.81346 v 0 c 0.387376,2.01913 0.715171,4.07338 0.633907,6.13603 0,0 3.523062,-1.79509 3.523062,-1.79509 z" />
    <path
       style="fill:#008000;stroke:#502d16;stroke-width:0;stroke-miterlimit:4;stroke-dasharray:none"
       id="path1353"
       d="m 65.772709,129.73824 c -0.03346,-1.32804 -0.0235,-2.65671 -0.02381,-3.98504 -2.65e-4,-0.94286 -0.0011,-0.47792 0.0021,-1.39482 0,0 -3.484851,1.77562 -3.484851,1.77562 v 0 c 0.0032,0.91457 0.0024,0.45036 0.0021,1.39263 -2.64e-4,1.33643 0.0094,2.67317 -0.02381,4.00931 0,0 3.528179,-1.7977 3.528179,-1.7977 z" />
    <path
       style="fill:#008000;stroke:#502d16;stroke-width:0;stroke-miterlimit:4;stroke-dasharray:none"
       id="path1355"
       d="m 88.026519,119.43266 c -0.18216,-1.20272 -0.413191,-2.39616 -0.557651,-3.60487 -0.126469,-0.60805 -0.06087,-0.31544 -0.195009,-0.87822 0,0 -3.472204,1.87478 -3.472204,1.87478 v 0 c 0.133297,0.53745 0.0693,0.26053 0.190522,0.83109 0.165068,1.20752 0.417798,2.40229 0.534191,3.61581 0,0 3.500151,-1.83859 3.500151,-1.83859 z" />
    <path
       style="fill:#008000;stroke:#502d16;stroke-width:0;stroke-miterlimit:4;stroke-dasharray:none"
       id="path1357"
       d="m 105.21741,111.75162 c -0.17548,-1.59175 -0.32649,-3.18685 -0.47519,-4.78172 -0.0227,-0.27712 -0.0454,-0.55425 -0.0681,-0.83137 0,0 -3.45094,1.79613 -3.45094,1.79613 v 0 c 0.0254,0.27734 0.0508,0.55468 0.0763,0.83202 0.16524,1.60614 0.29503,3.21382 0.4178,4.82354 0,0 3.50016,-1.8386 3.50016,-1.8386 z" />
    <path
       style="fill:#008000;stroke:#502d16;stroke-width:0;stroke-miterlimit:4;stroke-dasharray:none"
       id="path1359"
       d="m 132.59425,116.08214 c -0.26119,-1.42031 -0.47824,-2.84681 -0.73578,-4.2684 -0.0882,-0.46924 -0.14165,-0.9433 -0.19007,-1.41784 0,0 -3.49271,1.82941 -3.49271,1.82941 v 0 c 0.0594,0.48027 0.12415,0.95987 0.22282,1.43406 0.28371,1.42417 0.52231,2.85207 0.71893,4.29115 0,0 3.47681,-1.86838 3.47681,-1.86838 z" />
    <path
       style="fill:#008000;stroke:#502d16;stroke-width:0;stroke-miterlimit:4;stroke-dasharray:none"
       id="path1361"
       d="m 118.07434,130.79308 c -0.0247,-1.23456 -0.0166,-2.46953 -0.0181,-3.70428 -0.001,-0.23897 -0.002,-0.47793 -0.003,-0.7169 0,0 -3.47994,1.77312 -3.47994,1.77312 v 0 c -0.001,0.24015 -0.002,0.48029 -0.003,0.72043 -0.002,1.2409 0.007,2.48201 -0.0181,3.72272 0,0 3.52306,-1.79509 3.52306,-1.79509 z" />
    <path
       style="fill:#008000;stroke:#502d16;stroke-width:0;stroke-miterlimit:4;stroke-dasharray:none"
       id="path1363"
       d="m 92.839213,135.59046 c -0.01897,-0.5685 -0.01693,-1.13739 -0.01775,-1.70611 0,0 -3.492667,1.7796 -3.492667,1.7796 v 0 c -7.94e-4,0.57475 0.0011,1.14966 -0.01775,1.7242 0,0 3.528181,-1.79769 3.528181,-1.79769 z" />
    <path
       style="fill:#008000;stroke:#502d16;stroke-width:0;stroke-miterlimit:4;stroke-dasharray:none"
       id="path1365"
       d="m 75.535128,142.08921 c -0.330174,-1.28809 -0.428858,-2.61946 -0.526291,-3.94099 0,0 -3.447108,1.7905 -3.447108,1.7905 v 0 c 0.112056,1.34898 0.218485,2.70337 0.496607,4.03066 0,0 3.476792,-1.88017 3.476792,-1.88017 z" />
    <path
       style="fill:#008000;stroke:#502d16;stroke-width:0;stroke-miterlimit:4;stroke-dasharray:none"
       id="path1367"
       d="m 63.575569,149.08126 c 0.01511,-0.72283 -0.08922,-1.43739 -0.187465,-2.15088 0,0 -3.443925,1.80932 -3.443925,1.80932 v 0 c 0.08042,0.71005 0.16197,1.42037 0.108329,2.13665 0,0 3.523061,-1.79509 3.523061,-1.79509 z" />
    <path
       style="fill:#008000;stroke:#502d16;stroke-width:0;stroke-miterlimit:4;stroke-dasharray:none"
       id="path1369"
       d="m 81.740482,155.58728 c -0.590412,-2.73126 -0.828637,-5.51737 -1.223785,-8.27826 -0.0609,-0.27173 -0.121811,-0.54346 -0.182716,-0.8152 0,0 -3.42619,1.84801 -3.42619,1.84801 v 0 c 0.06536,0.25771 0.130723,0.51542 0.196086,0.77312 0.464396,2.74822 0.76536,5.52402 1.185066,8.27936 0,0 3.451539,-1.80703 3.451539,-1.80703 z" />
    <path
       style="fill:#008000;stroke:#502d16;stroke-width:0;stroke-miterlimit:4;stroke-dasharray:none"
       id="path1371"
       d="m 99.422957,149.48947 c -0.01204,-1.29525 -0.07202,-2.59383 0.02751,-3.8863 0.02416,-0.62207 0.179872,-1.21836 0.343381,-1.8143 0,0 -3.533521,1.68935 -3.533521,1.68935 v 0 c -0.150219,0.61852 -0.2907,1.23748 -0.305551,1.87788 -0.06824,1.30923 -0.01807,2.62074 -0.06,3.93107 0,0 3.528182,-1.7977 3.528182,-1.7977 z" />
    <path
       style="fill:#008000;stroke:#502d16;stroke-width:0;stroke-miterlimit:4;stroke-dasharray:none"
       id="path1373"
       d="m 138.18877,143.18659 c -0.0369,-1.59487 -0.0322,-3.19041 -0.0223,-4.78557 0.002,-0.22948 0.004,-0.45895 0.005,-0.68843 0,0 -3.4838,1.77509 -3.4838,1.77509 v 0 c 0.002,0.22768 0.004,0.45537 0.005,0.68306 0.01,1.60276 0.0142,3.20587 -0.0223,4.80834 0,0 3.51795,-1.79249 3.51795,-1.79249 z" />
    <path
       style="fill:#008000;stroke:#502d16;stroke-width:0;stroke-miterlimit:4;stroke-dasharray:none"
       id="path1375"
       d="m 149.89833,129.73824 c -0.0245,-1.16541 -0.0214,-2.33117 -0.0163,-3.49676 0.001,-0.17933 0.002,-0.35865 0.003,-0.53797 0,0 -3.50125,1.78398 -3.50125,1.78398 v 0 c 0.001,0.17836 0.002,0.35672 0.003,0.53509 0.005,1.17112 0.008,2.34241 -0.0163,3.51336 0,0 3.52818,-1.7977 3.52818,-1.7977 z" />
    <path
       style="fill:#008000;stroke:#502d16;stroke-width:0;stroke-miterlimit:4;stroke-dasharray:none"
       id="path1377"
       d="m 162.69749,146.52091 c -0.0529,-1.99756 -0.0497,-3.99629 -0.0465,-5.99442 0.0389,-1.29355 -0.0673,-2.58482 -0.15405,-3.87421 0,0 -3.45328,1.79174 -3.45328,1.79174 v 0 c 0.10262,1.27405 0.20664,2.55062 0.17723,3.83019 0.003,2.01393 0.006,4.02843 -0.0465,6.04179 0,0 3.52306,-1.79509 3.52306,-1.79509 z" />
    <path
       style="fill:#008000;stroke:#502d16;stroke-width:0;stroke-miterlimit:4;stroke-dasharray:none"
       id="path1379"
       d="m 136.05137,158.61316 c 0.0855,-0.87697 0.13912,-1.7568 0.19544,-2.63603 0,0 -3.49306,1.75186 -3.49306,1.75186 v 0 c -0.056,0.88051 -0.11271,1.76229 -0.24717,2.63516 0,0 3.54479,-1.75099 3.54479,-1.75099 z" />
    <path
       style="fill:#008000;stroke:#502d16;stroke-width:0;stroke-miterlimit:4;stroke-dasharray:none"
       id="path1381"
       d="m 103.43868,165.08996 c -0.0203,-1.85002 0.10427,-3.70025 0.1666,-5.54953 0,0 -3.40539,1.71857 -3.40539,1.71857 v 0 c -0.082,1.87418 -0.214233,3.74601 -0.27404,5.62083 0,0 3.51283,-1.78987 3.51283,-1.78987 z" />
    <path
       style="fill:#008000;stroke:#502d16;stroke-width:0;stroke-miterlimit:4;stroke-dasharray:none"
       id="path1383"
       d="m 118.43498,161.06656 c -0.0383,-1.25672 -0.0369,-2.51409 -0.0342,-3.77123 0,0 -3.44448,1.75505 -3.44448,1.75505 v 0 c 0.003,1.26875 0.004,2.53772 -0.0342,3.80605 0,0 3.51282,-1.78987 3.51282,-1.78987 z" />
    <path
       style="fill:#008000;stroke:#502d16;stroke-width:0;stroke-miterlimit:4;stroke-dasharray:none"
       id="path1385"
       d="m 115.8772,182.68906 c -0.0611,-1.89189 0.0296,-3.78301 -0.18762,-5.66613 0,0 -3.4385,1.8028 -3.4385,1.8028 v 0 c 0.22334,1.87804 0.14842,3.76829 0.10817,5.65581 0,0 3.51795,-1.79248 3.51795,-1.79248 z" />
    <path
       style="fill:#008000;stroke:#502d16;stroke-width:0;stroke-miterlimit:4;stroke-dasharray:none"
       id="path1387"
       d="m 134.16282,174.59981 c -0.059,-1.5584 -0.0613,-3.11578 -0.008,-4.67401 0,0 -3.40872,1.72319 -3.40872,1.72319 v 0 c -0.047,1.58013 -0.0534,3.16047 -0.0958,4.7407 0,0 3.51283,-1.78988 3.51283,-1.78988 z" />
    <path
       style="fill:#008000;stroke:#502d16;stroke-width:0;stroke-miterlimit:4;stroke-dasharray:none"
       id="path1389"
       d="m 153.18764,166.27214 c -0.15075,-1.35059 -0.22968,-2.70761 -0.29822,-4.06439 0,0 -3.45675,1.78468 -3.45675,1.78468 v 0 c 0.077,1.35826 0.18996,2.71492 0.2319,4.0748 0,0 3.52307,-1.79509 3.52307,-1.79509 z" />
    <path
       style="fill:#008000;stroke:#502d16;stroke-width:0;stroke-miterlimit:4;stroke-dasharray:none"
       id="path1391"
       d="m 173.30719,156.80474 c -0.0422,-1.64012 -0.0408,-3.28074 -0.0367,-4.92126 0.007,-1.09703 0.003,-0.56534 0.0111,-1.59509 0,0 -3.47698,1.77161 -3.47698,1.77161 v 0 c 0.008,1.02197 0.004,0.49403 0.0111,1.58381 0.004,1.65298 0.005,3.30604 -0.0367,4.95863 0,0 3.52818,-1.7977 3.52818,-1.7977 z" />
    <circle
       id="path1393"
       style="fill:#008000;stroke:#502d16;stroke-width:0.264583"
       cx="109.3633"
       cy="134.23523"
       r="0" />
  </g>
</svg>
